<?xml version="1.0" standalone="no"?>
<!DOCTYPE svg PUBLIC "-//W3C//DTD SVG 20010904//EN"
 "http://www.w3.org/TR/2001/REC-SVG-20010904/DTD/svg10.dtd">
<svg version="1.0" xmlns="http://www.w3.org/2000/svg"
 width="276.000000pt" height="260.000000pt" viewBox="0 0 276.000000 260.000000"
 preserveAspectRatio="xMidYMid meet">

<g transform="translate(0.000000,260.000000) scale(0.100000,-0.100000)"
fill="#000000" stroke="none">
<path d="M0 1300 c0 -1293 0 -1300 20 -1300 22 0 23 6 20 197 l-1 92 40 12
c34 10 47 9 82 -4 40 -16 41 -16 81 13 82 59 165 24 178 -74 4 -35 8 -39 34
-41 30 -1 56 -27 56 -56 0 -16 7 -17 48 -13 56 7 94 -16 111 -69 10 -29 57
-65 69 -52 3 2 -7 10 -22 16 -15 7 -29 23 -32 36 -3 12 -22 37 -41 54 -31 26
-42 30 -79 27 -36 -3 -44 0 -44 14 0 24 -39 58 -67 58 -20 0 -23 5 -23 34 0
67 -74 120 -144 102 -14 -3 -38 -17 -54 -31 -29 -24 -31 -24 -68 -9 -35 15
-66 14 -106 -1 -17 -7 -18 32 -18 739 l0 746 118 0 c103 0 121 3 135 18 10 10
17 28 17 39 0 23 -29 53 -53 53 -8 0 -18 9 -22 20 -9 29 -54 60 -84 59 -24 -1
-23 -2 6 -9 42 -10 59 -24 67 -55 5 -18 13 -25 29 -25 29 0 47 -18 47 -45 0
-39 -18 -45 -142 -45 l-118 0 0 59 c0 38 4 61 12 64 10 4 10 6 1 6 -10 1 -13
75 -13 336 0 328 0 335 -20 335 -20 0 -20 -7 -20 -1300z"/>
<path d="M2700 2230 l0 -370 -180 0 c-167 0 -181 1 -200 20 -11 11 -20 16 -20
11 0 -6 9 -16 20 -24 20 -14 20 -16 -15 -65 -2 -2 -23 9 -47 24 -41 25 -46 32
-64 96 -10 38 -22 72 -26 74 -4 3 -1 -17 7 -43 23 -74 28 -93 22 -93 -3 0 -34
14 -69 30 l-63 30 -10 -52 c-6 -29 -13 -48 -17 -43 -3 6 -14 47 -24 93 l-19
82 -81 0 c-73 0 -82 -2 -78 -17 25 -122 43 -227 38 -234 -3 -5 -16 -9 -30 -9
-30 0 -30 -5 0 -56 l23 -41 -34 -36 c-18 -20 -33 -45 -33 -55 0 -10 18 -36 40
-57 22 -21 40 -43 40 -47 0 -5 -33 -8 -72 -6 l-73 3 -7 105 c-3 58 -18 172
-32 254 -14 83 -26 160 -26 173 0 22 -3 23 -86 23 -47 0 -83 -4 -80 -8 11 -18
37 -346 34 -442 l-3 -105 -80 0 -80 0 -3 278 -2 277 -75 0 c-65 0 -75 -2 -75
-17 0 -10 -9 -101 -20 -203 -11 -102 -20 -215 -20 -251 0 -41 -5 -70 -12 -76
-7 -6 -43 -11 -79 -11 -89 -2 -93 4 -86 116 5 73 44 340 62 420 5 22 3 22 -83
22 -76 0 -88 -2 -89 -17 -1 -10 -18 -99 -38 -198 -23 -112 -37 -204 -36 -242
3 -96 -5 -104 -97 -101 l-77 3 -3 81 c-2 69 4 106 43 260 25 98 48 187 51 197
5 14 -1 17 -35 17 -40 0 -41 1 -41 35 l0 35 710 0 710 0 0 -40 c0 -28 4 -38
13 -34 9 3 12 17 8 47 l-6 42 -130 1 -130 2 -5 71 c-3 49 -10 75 -20 81 -9 6
-191 10 -441 10 -493 0 -459 7 -459 -98 0 -43 -4 -62 -12 -63 -7 0 -56 0 -109
1 -127 1 -151 -5 -149 -39 4 -49 2 -51 -43 -51 l-43 0 -13 -52 c-7 -29 -28
-105 -46 -168 -43 -150 -46 -163 -47 -248 -1 -83 10 -102 58 -102 l34 0 0
-127 c-1 -97 -5 -141 -19 -181 -10 -29 -20 -55 -23 -57 -3 -3 -11 14 -17 37
-7 24 -21 54 -31 68 -16 21 -22 23 -37 14 -15 -10 -18 -26 -18 -105 l0 -94
-46 49 c-27 29 -51 46 -57 42 -17 -10 -15 -60 3 -103 25 -58 20 -66 -23 -39
-53 34 -81 41 -88 21 -8 -20 9 -53 52 -104 38 -43 41 -93 8 -100 -28 -5 -44
-21 -44 -43 0 -17 -5 -20 -29 -15 -43 9 -75 -17 -68 -57 3 -21 -1 -38 -13 -54
-53 -65 57 -113 217 -93 33 4 71 3 83 -1 15 -5 33 -3 52 6 33 17 88 4 88 -20
0 -12 41 -14 245 -14 238 0 245 1 245 20 0 15 7 20 28 20 25 0 28 3 25 28 l-5
27 -259 -3 -259 -3 0 441 0 440 33 -1 c17 -1 24 -3 14 -6 -9 -2 -17 -12 -17
-21 0 -15 -2 -15 -10 -2 -8 12 -10 11 -10 -6 0 -27 27 -40 33 -16 4 16 5 16 6
0 1 -15 18 -17 141 -20 l140 -3 0 32 c0 25 -5 33 -22 36 -20 4 -19 4 5 6 25 1
27 -2 27 -39 l0 -40 90 0 90 0 0 40 c0 22 4 40 9 40 5 0 7 -10 3 -22 -4 -18
-2 -20 14 -15 18 7 18 6 2 -7 -20 -15 -24 -36 -7 -36 5 0 8 4 5 9 -4 5 4 4 16
-1 l23 -11 -3 -244 -3 -243 -74 0 -75 0 0 -35 0 -35 75 0 75 0 0 -100 c0 -89
2 -100 18 -100 16 0 17 14 14 180 l-3 180 46 0 c42 0 45 2 35 19 -6 12 -23 21
-43 23 l-32 3 0 160 0 160 205 0 205 0 3 -163 3 -164 -66 4 c-62 3 -65 2 -65
-19 0 -22 4 -23 65 -23 l65 0 0 -65 c0 -36 -3 -65 -7 -65 -5 1 -33 23 -63 50
-49 44 -56 48 -65 33 -5 -9 -22 -30 -37 -46 -36 -37 -32 -43 82 -148 66 -60
90 -88 87 -101 -4 -13 0 -18 14 -18 10 0 19 4 19 8 0 4 15 8 34 8 44 0 91 36
141 108 21 31 40 54 42 52 2 -2 1 -52 -3 -110 l-7 -107 -73 3 c-72 3 -73 3
-77 -25 -3 -24 0 -27 25 -27 22 0 28 -4 28 -23 0 -20 4 -22 45 -19 l45 4 -7
-136 c-4 -100 -3 -136 5 -136 8 0 12 -30 12 -95 l0 -95 115 0 115 0 0 26 c0
23 3 25 33 22 24 -2 33 -8 35 -26 3 -21 7 -22 118 -22 107 0 114 1 114 20 0
24 34 44 64 36 18 -4 25 1 37 27 11 25 21 33 47 35 19 2 32 9 32 17 0 24 50
73 81 80 17 4 43 2 60 -5 l29 -12 0 -99 0 -99 30 0 30 0 0 1300 0 1300 -30 0
-30 0 0 -370z m-1710 -70 c0 -16 4 -30 9 -30 5 0 11 14 15 30 4 24 11 30 30
30 14 0 29 -7 34 -16 8 -15 10 -15 15 0 7 18 47 22 47 5 0 -5 -5 -7 -10 -4
-18 11 -24 -27 -7 -40 21 -15 22 -25 3 -25 -8 0 -21 9 -28 19 -13 19 -15 19
-25 2 -8 -13 -24 -18 -57 -18 l-46 -1 0 39 c0 21 5 39 10 39 6 0 10 -13 10
-30z m219 -1 c15 -44 14 -54 -5 -38 -12 10 -20 10 -35 1 -22 -14 -23 -7 -8 37
6 17 17 31 24 31 7 0 18 -14 24 -31z m41 1 c0 -21 5 -30 16 -30 8 0 12 -4 9
-10 -3 -5 -15 -10 -26 -10 -16 0 -19 7 -19 40 0 22 5 40 10 40 6 0 10 -13 10
-30z m110 -4 c0 -32 -13 -46 -41 -46 -5 0 -9 18 -9 40 0 36 3 40 25 40 22 0
25 -4 25 -34z m30 10 c0 -14 5 -28 10 -31 6 -4 10 7 10 24 0 37 16 41 23 5 2
-14 -2 -31 -10 -40 -18 -17 -25 -18 -41 -2 -14 14 -16 68 -2 68 6 0 10 -11 10
-24z m100 13 c0 -5 -6 -7 -12 -3 -8 5 -7 0 2 -11 14 -18 15 -18 18 3 4 23 32
31 32 10 0 -9 4 -8 10 2 9 13 12 12 25 -4 13 -17 15 -18 15 -3 0 9 5 17 10 17
6 0 10 -19 10 -42 0 -40 -1 -40 -19 -24 -17 16 -19 16 -26 -1 -7 -15 -9 -13
-15 12 -6 23 -8 25 -9 8 -1 -25 -17 -38 -26 -23 -5 8 -11 8 -20 0 -14 -12 -45
-3 -45 12 0 6 7 8 15 4 20 -7 19 4 -2 19 -9 7 -13 17 -9 23 9 15 46 16 46 1z
m160 1 c-13 -9 -13 -11 0 -20 10 -6 11 -10 3 -10 -7 0 -13 -4 -13 -9 0 -5 14
-9 30 -9 28 1 29 2 14 19 -9 10 -13 23 -9 28 8 14 45 14 45 0 0 -5 -4 -7 -10
-4 -5 3 -10 1 -10 -4 0 -6 5 -11 11 -11 6 0 9 -10 7 -22 -3 -20 -9 -23 -53
-23 l-50 0 -3 38 c-3 35 -1 37 25 37 22 0 25 -2 13 -10z m130 0 c0 -5 -5 -10
-10 -10 -6 0 -5 -8 2 -20 15 -23 -1 -46 -26 -37 -22 9 -20 28 2 21 16 -5 16
-5 0 9 -27 21 -23 47 7 47 14 0 25 -4 25 -10z m920 -1149 l0 -818 -39 10 c-32
9 -44 7 -77 -9 -21 -11 -45 -34 -53 -52 -10 -20 -25 -32 -41 -34 -14 -2 -33
-16 -45 -33 -13 -19 -29 -30 -45 -31 -14 -1 -34 -5 -44 -9 -19 -8 -19 -4 -13
100 4 59 7 160 7 224 l0 116 58 -2 c31 -1 69 -5 84 -9 15 -3 36 -3 45 1 10 4
32 7 50 6 61 -4 98 70 52 103 -12 8 -18 19 -14 26 10 17 -23 60 -46 60 -16 0
-19 4 -13 18 13 28 8 71 -10 91 -16 17 -16 21 1 55 15 32 15 38 3 46 -8 6 -25
10 -37 10 l-22 0 19 46 c45 105 22 140 -55 85 l-43 -31 9 38 c22 97 1 165 -41
127 -10 -9 -28 -36 -39 -59 l-21 -41 0 52 c0 62 -14 103 -35 103 -19 0 -53
-54 -61 -98 -7 -38 -28 -38 -32 1 -2 19 7 36 37 66 23 23 41 46 41 51 0 6 13
10 29 10 34 0 71 43 71 82 0 18 9 29 36 42 32 15 35 20 29 44 -19 77 -19 77
19 95 20 9 36 24 36 32 0 8 -16 40 -36 70 l-37 55 27 34 c14 19 26 37 26 40 0
3 -24 6 -54 6 -50 0 -54 2 -60 28 -3 15 -8 37 -12 50 l-6 22 176 0 176 0 0
-819z m-729 538 c17 -12 48 -23 70 -26 34 -5 41 -3 45 15 5 18 8 19 32 6 37
-19 112 -19 112 1 0 18 2 18 33 4 24 -11 24 -13 19 -107 -5 -96 -4 -97 15 -79
26 22 50 22 63 -2 27 -51 -8 -121 -61 -121 -16 0 -29 -5 -29 -12 -1 -19 -33
-54 -71 -77 -19 -12 -28 -21 -21 -21 7 0 12 -13 12 -30 0 -37 -27 -31 -33 8
-3 21 -4 18 -6 -11 -1 -25 3 -36 12 -35 18 4 10 -44 -10 -59 -18 -14 -81 -17
-100 -5 -6 4 -16 20 -22 34 -8 22 -7 29 7 38 14 9 11 10 -13 6 -16 -3 -50 -8
-75 -11 -54 -8 -93 -33 -140 -91 -30 -36 -41 -43 -72 -43 l-38 -1 0 163 c0 90
2 166 4 168 2 2 43 3 90 1 80 -3 86 -5 88 -25 0 -12 4 39 8 113 5 91 13 149
25 178 9 23 19 42 22 42 3 0 18 -9 34 -21z m-788 -144 c-3 -9 -8 -14 -10 -11
-3 3 -2 9 2 15 9 16 15 13 8 -4z m179 8 c-6 -2 -10 -8 -8 -11 2 -4 -34 -7 -80
-7 -102 0 -98 13 6 18 41 1 80 4 85 4 6 1 4 -1 -3 -4z m-555 -18 c0 -8 -4 -15
-9 -15 -4 0 -8 5 -8 11 0 6 -26 10 -70 8 -39 -1 -72 0 -75 3 -3 3 32 6 78 7
70 2 84 -1 84 -14z m350 9 c-3 -3 -12 -4 -19 -1 -8 3 -5 6 6 6 11 1 17 -2 13
-5z m363 -1 c0 -5 -33 -8 -74 -8 -41 0 -72 3 -69 8 2 4 35 7 74 7 38 0 69 -3
69 -7z m165 1 c-46 -7 -123 -8 -118 -1 2 4 34 6 71 6 37 -1 58 -3 47 -5z m132
0 c-9 -9 -76 -10 -71 -2 3 5 21 8 41 8 20 0 34 -3 30 -6z m56 -1 c-7 -2 -21
-2 -30 0 -10 3 -4 5 12 5 17 0 24 -2 18 -5z m-1020 -29 c-3 -8 -10 -14 -16
-14 -6 0 -7 3 -4 7 4 3 2 12 -4 19 -8 9 -5 11 10 7 12 -3 17 -11 14 -19z m207
-9 c0 -25 -1 -25 -80 -25 -79 0 -80 0 -80 25 0 25 1 25 80 25 79 0 80 0 80
-25z m817 3 c-3 -8 -6 -5 -6 6 -1 11 2 17 5 13 3 -3 4 -12 1 -19z m-1214 -5
c-7 -2 -21 -2 -30 0 -10 3 -4 5 12 5 17 0 24 -2 18 -5z m1077 -3 c0 -5 -15
-10 -32 -10 -25 0 -29 3 -18 10 20 13 50 13 50 0z m135 -50 c-3 -6 -52 -10
-111 -10 l-104 0 0 -205 0 -205 35 0 c19 0 35 -2 35 -5 0 -3 -22 -35 -49 -70
-38 -51 -51 -62 -60 -52 -7 9 -11 110 -13 290 l-3 277 128 0 c95 0 127 3 127
13 0 6 5 4 11 -6 5 -9 7 -22 4 -27z m274 -379 c11 -11 23 -39 26 -63 6 -42 8
-44 39 -40 53 6 66 -15 66 -113 0 -79 -1 -84 -22 -87 -15 -3 -35 7 -57 26
l-35 31 32 -38 c32 -37 42 -89 26 -131 -8 -22 -76 -38 -132 -32 l-47 5 48 -11
c38 -8 57 -7 97 6 28 9 61 14 74 10 20 -5 24 -13 30 -66 3 -34 6 -81 6 -104
l0 -44 -231 0 -231 0 6 53 c3 28 13 133 21 232 24 282 19 263 65 261 37 -1 39
1 45 33 4 19 19 47 35 63 23 23 37 28 74 28 32 0 52 -6 65 -19z m-1631 -230
c-7 -2 -27 -18 -44 -35 -31 -31 -31 -31 -60 -14 -40 25 -69 22 -93 -7 -15 -20
-25 -24 -45 -19 -23 5 -28 2 -37 -25 -7 -19 -18 -31 -28 -31 -19 0 -54 -34
-64 -62 -8 -22 -21 -23 -41 -2 -25 24 -17 46 22 59 22 6 22 8 8 24 -19 21 -21
41 -3 41 9 0 8 3 -2 9 -21 14 24 25 48 12 28 -15 44 -14 38 4 -4 8 -2 17 3 20
5 3 6 13 3 22 -5 13 -2 15 21 9 21 -5 26 -4 20 6 -6 10 -4 10 8 0 15 -12 16
-10 12 22 -3 27 0 36 10 36 8 0 18 4 21 10 3 6 -1 7 -9 4 -19 -7 -21 9 -3 24
18 15 87 13 94 -4 9 -23 39 -16 52 12 10 22 16 25 41 20 24 -4 30 -2 32 12 1
9 4 -19 5 -63 3 -59 1 -81 -9 -84z m515 122 c-7 -2 -19 -2 -25 0 -7 3 -2 5 12
5 14 0 19 -2 13 -5z m54 -40 c-20 -2 -52 -2 -70 0 -17 2 0 4 38 4 39 0 53 -2
32 -4z m1452 -27 c19 -20 22 -31 16 -57 l-7 -33 -15 29 c-20 38 -33 85 -24 85
4 0 18 -11 30 -24z m-159 -87 c0 -6 -4 -7 -10 -4 -5 3 -10 11 -10 16 0 6 5 7
10 4 6 -3 10 -11 10 -16z m224 -44 c3 -8 3 -22 -1 -30 -3 -9 2 -22 13 -29 18
-14 27 -56 12 -56 -5 0 -7 -4 -4 -9 8 -12 -34 -22 -51 -12 -12 6 -12 10 1 20
20 16 21 37 3 48 -8 4 -17 25 -20 46 -5 34 -4 37 18 37 12 0 25 -7 29 -15z
m-504 -476 c0 -17 -20 -49 -30 -49 -6 0 -10 14 -10 30 0 23 4 30 20 30 11 0
20 -5 20 -11z m230 1 c0 -5 -2 -10 -4 -10 -3 0 -8 5 -11 10 -3 6 -1 10 4 10 6
0 11 -4 11 -10z"/>
<path d="M1038 2167 c-6 -16 1 -37 13 -37 12 0 12 37 0 44 -5 3 -11 0 -13 -7z"/>
<path d="M1949 1493 c-13 -15 -12 -15 10 -4 12 7 32 11 42 8 10 -3 17 -1 13 4
-9 15 -51 10 -65 -8z"/>
<path d="M2173 1495 c-17 -13 -17 -14 5 -8 12 3 29 0 37 -7 13 -11 14 -10 9 3
-8 23 -29 28 -51 12z"/>
<path d="M1954 1425 c-7 -17 4 -37 17 -30 12 8 12 45 -1 45 -6 0 -13 -7 -16
-15z"/>
<path d="M2166 1424 c-10 -25 -7 -34 9 -34 8 0 15 9 15 19 0 26 -16 35 -24 15z"/>
<path d="M2290 1316 c0 -8 4 -17 9 -20 5 -4 7 3 4 14 -6 23 -13 26 -13 6z"/>
<path d="M2146 1256 c7 -18 3 -19 -70 -13 l-77 7 3 -27 c2 -22 10 -29 39 -36
53 -12 102 3 113 36 7 19 6 31 -3 40 -10 10 -11 8 -5 -7z"/>
<path d="M2048 1133 c7 -3 16 -2 19 1 4 3 -2 6 -13 5 -11 0 -14 -3 -6 -6z"/>
<path d="M2025 925 c-14 -13 -25 -33 -25 -45 0 -11 0 -23 0 -26 0 -4 36 -7 81
-8 l81 -1 -6 35 c-11 68 -84 93 -131 45z"/>
<path d="M2105 719 c-11 -16 -1 -19 13 -3 7 8 8 14 3 14 -5 0 -13 -5 -16 -11z"/>
<path d="M2003 653 c-3 -10 -8 -21 -10 -25 -2 -5 11 -8 29 -7 31 0 31 1 9 10
-15 6 -21 15 -17 24 3 8 3 15 0 15 -2 0 -7 -8 -11 -17z"/>
<path d="M2118 663 c6 -2 18 -2 25 0 6 3 1 5 -13 5 -14 0 -19 -2 -12 -5z"/>
<path d="M1990 573 c0 -10 12 -29 27 -43 15 -14 23 -19 19 -12 -5 8 0 12 16
13 16 1 12 4 -14 11 -21 6 -38 16 -38 23 0 9 15 15 38 18 l37 4 -42 1 c-35 2
-43 -1 -43 -15z"/>
<path d="M2064 2485 c-12 -8 -27 -28 -34 -45 -8 -20 -19 -30 -34 -30 -29 0
-69 -43 -63 -67 4 -16 5 -15 6 3 1 28 32 54 63 54 18 0 27 6 31 23 11 41 33
60 78 67 42 7 43 8 9 9 -20 0 -45 -6 -56 -14z"/>
<path d="M2185 2463 c14 -15 25 -30 25 -34 0 -3 13 -4 29 -1 23 3 36 -2 55
-23 14 -15 31 -25 38 -22 9 4 9 6 1 6 -7 1 -23 12 -37 26 -14 14 -37 25 -52
25 -16 0 -34 10 -46 25 -11 14 -24 25 -29 25 -5 0 2 -12 16 -27z"/>
<path d="M558 2453 c6 -2 18 -2 25 0 6 3 1 5 -13 5 -14 0 -19 -2 -12 -5z"/>
<path d="M495 2424 c-14 -15 -25 -34 -25 -42 0 -10 -7 -13 -27 -8 l-28 6 25
-15 c33 -19 35 -19 37 6 1 12 14 35 29 50 15 16 24 29 20 29 -4 0 -18 -12 -31
-26z"/>
<path d="M636 2414 c28 -29 39 -35 66 -31 l33 4 -33 1 c-23 2 -41 11 -59 32
-13 17 -28 30 -33 30 -4 0 8 -16 26 -36z"/>
<path d="M740 2386 c0 -4 9 -19 20 -33 11 -14 20 -34 20 -44 0 -12 7 -19 19
-19 11 0 27 -10 35 -22 14 -19 16 -20 16 -4 0 11 -12 22 -30 29 -16 6 -30 16
-30 22 0 6 -11 26 -25 45 -14 19 -25 30 -25 26z"/>
<path d="M2359 2361 c10 -18 10 -29 1 -49 -10 -22 -9 -24 4 -12 21 16 20 54
-1 71 -15 13 -15 12 -4 -10z"/>
<path d="M370 2350 c-11 -11 -20 -26 -20 -32 0 -8 5 -6 11 4 5 10 19 24 32 33
12 8 16 15 9 15 -6 0 -21 -9 -32 -20z"/>
<path d="M1954 2303 c19 -23 23 -23 205 -21 l186 3 -184 2 c-158 3 -188 6
-205 21 -21 17 -21 17 -2 -5z"/>
<path d="M314 2292 c-6 -4 -17 -18 -23 -30 -11 -21 -10 -27 10 -48 l22 -24
244 0 c235 0 283 5 283 31 0 6 -7 3 -16 -5 -13 -14 -51 -16 -264 -16 -243 0
-249 0 -264 22 -18 25 -6 54 27 68 13 5 16 9 7 9 -8 0 -20 -3 -26 -7z"/>
<path d="M2509 2091 c-16 -16 -29 -37 -29 -46 0 -12 -5 -15 -21 -10 -33 11
-68 -3 -88 -36 -11 -17 -30 -36 -42 -43 -13 -6 -25 -20 -26 -31 -3 -17 -1 -16
7 3 6 14 18 22 35 22 18 0 25 5 25 20 0 40 76 80 95 50 11 -19 25 -10 25 15 0
39 45 75 91 75 32 0 43 -6 66 -35 15 -19 31 -35 35 -35 8 0 -12 27 -44 62 -29
30 -93 24 -129 -11z"/>
<path d="M98 1953 c-18 -21 -31 -43 -25 -43 2 0 13 14 25 30 25 33 24 41 0 13z"/>
<path d="M630 1115 l0 -205 233 2 232 3 2 203 2 202 -234 0 -235 0 0 -205z
m420 0 l0 -165 -190 0 -190 0 0 165 0 165 190 0 190 0 0 -165z"/>
<path d="M1307 1242 c-24 -3 -28 -7 -25 -30 3 -27 3 -27 88 -27 85 0 85 0 88
27 3 26 2 26 -60 30 -35 1 -76 2 -91 0z m103 -32 c0 -6 -13 -9 -28 -8 -15 1
-33 -1 -40 -6 -7 -4 -12 -1 -12 8 0 12 10 16 40 16 22 0 40 -5 40 -10z"/>
<path d="M1250 1093 c8 -3 26 -15 40 -27 22 -19 23 -19 10 -1 -20 27 -32 35
-50 34 -13 -1 -13 -1 0 -6z"/>
<path d="M1520 1056 c0 -48 16 -63 25 -23 7 30 1 60 -13 65 -8 2 -12 -12 -12
-42z"/>
<path d="M1220 1043 c0 -10 12 -31 26 -48 l26 -30 -21 32 c-33 50 -26 69 13
36 21 -18 21 -18 2 5 -23 26 -46 29 -46 5z"/>
<path d="M1420 1056 c0 -2 7 -7 16 -10 8 -3 12 -2 9 4 -6 10 -25 14 -25 6z"/>
<path d="M1310 1036 c0 -2 8 -10 18 -17 15 -13 16 -12 3 4 -13 16 -21 21 -21
13z"/>
<path d="M1408 1010 c-3 -16 -1 -30 4 -30 4 0 8 14 8 30 0 17 -2 30 -4 30 -2
0 -6 -13 -8 -30z"/>
<path d="M1280 1006 c0 -2 8 -10 18 -17 15 -13 16 -12 3 4 -13 16 -21 21 -21
13z"/>
<path d="M1309 858 c14 -16 32 -28 40 -27 14 0 14 1 1 6 -8 3 -26 15 -40 27
l-25 21 24 -27z"/>
<path d="M660 820 l0 -40 80 0 80 0 0 40 0 40 -80 0 -80 0 0 -40z m80 1 l-65
-5 65 -6 65 -7 -67 -1 c-59 -2 -68 0 -68 16 0 15 8 16 67 12 l68 -5 -65 -4z"/>
<path d="M890 695 l0 -35 80 0 80 0 0 35 0 35 -80 0 -80 0 0 -35z m150 2 c0
-14 -6 -24 -15 -24 -8 0 -15 4 -15 9 0 4 5 8 10 8 6 0 10 4 10 8 0 5 -22 10
-50 11 -28 1 -50 -3 -50 -9 0 -5 5 -10 11 -10 5 0 7 -4 4 -10 -10 -16 -45 -12
-45 5 0 8 6 15 13 15 8 0 7 4 -3 10 -10 7 7 10 58 10 69 0 72 -1 72 -23z"/>
<path d="M1193 423 c97 -2 257 -2 355 0 97 1 17 2 -178 2 -195 0 -275 -1 -177
-2z"/>
<path d="M723 360 c-67 -5 -83 -14 -64 -33 16 -16 268 -17 295 -1 19 11 19 12
0 22 -23 12 -148 19 -231 12z m197 -18 c18 -5 2 -8 -53 -12 -103 -7 -194 -1
-176 11 17 11 194 12 229 1z"/>
<path d="M1541 361 c-9 -6 -10 -10 -2 -16 16 -9 116 -9 131 0 21 13 -10 25
-65 25 -27 0 -56 -4 -64 -9z m87 -8 c-16 -2 -40 -2 -55 0 -16 2 -3 4 27 4 30
0 43 -2 28 -4z"/>
<path d="M1128 273 c-10 -2 -18 -8 -18 -13 0 -20 83 -28 110 -10 32 21 -36 38
-92 23z"/>
<path d="M1383 201 c-50 -9 -61 -17 -44 -34 16 -16 298 -17 325 -1 18 11 18
12 -4 24 -27 15 -216 22 -277 11z m261 -20 c8 -12 -54 -21 -144 -21 -94 0
-157 10 -138 21 17 11 275 11 282 0z"/>
</g>
</svg>
