<?xml version="1.0" standalone="no"?>
<!DOCTYPE svg PUBLIC "-//W3C//DTD SVG 20010904//EN"
 "http://www.w3.org/TR/2001/REC-SVG-20010904/DTD/svg10.dtd">
<svg version="1.0" xmlns="http://www.w3.org/2000/svg"
 width="225.000000pt" height="225.000000pt" viewBox="0 0 225.000000 225.000000"
 preserveAspectRatio="xMidYMid meet">

<g transform="translate(0.000000,225.000000) scale(0.100000,-0.100000)"
fill="#FFFFFF" stroke="none">
<path d="M815 1423 c-26 -31 -60 -83 -76 -115 -16 -32 -39 -64 -52 -72 -21
-14 -108 -38 -114 -32 -2 2 13 37 32 79 19 42 35 82 35 90 0 21 -43 57 -69 57
-81 0 -259 -172 -249 -241 4 -31 28 -37 28 -7 0 25 57 101 105 141 54 44 135
81 135 61 0 -4 -24 -52 -52 -107 l-53 -100 -94 -43 c-76 -36 -91 -47 -82 -58
10 -12 19 -11 63 6 28 10 54 18 59 16 5 -2 -3 -27 -16 -56 -14 -30 -25 -60
-25 -67 0 -11 29 -30 35 -23 1 2 23 40 49 85 26 44 52 85 59 91 11 8 139 43
143 39 1 -1 -2 -22 -6 -47 -15 -73 -12 -126 8 -149 17 -22 17 -21 17 41 1 74
29 165 53 172 9 2 36 8 59 11 24 4 45 11 48 15 8 13 -29 30 -65 30 l-31 0 32
61 c18 34 53 83 77 110 24 27 41 53 37 59 -15 23 -46 7 -90 -47z"/>
<path d="M1955 1444 c-58 -14 -117 -41 -172 -81 -61 -43 -63 -43 -63 -20 0 39
-32 70 -69 69 -18 0 -40 -7 -48 -14 -21 -17 -49 -83 -58 -135 -5 -34 -3 -45
14 -62 11 -11 33 -24 47 -27 23 -6 32 -1 58 28 17 19 38 48 47 64 17 33 114
86 189 103 59 14 129 14 169 0 18 -6 34 -9 37 -6 10 10 -9 58 -27 67 -22 12
-97 20 -124 14z m-267 -73 c7 -43 -7 -73 -31 -69 -29 4 -33 33 -9 54 11 9 18
24 15 32 -4 10 -1 13 8 10 8 -2 15 -15 17 -27z m-36 -91 c17 0 17 -2 4 -28
-17 -33 -44 -58 -52 -49 -4 3 -3 27 1 53 5 34 10 43 18 35 6 -6 19 -11 29 -11z"/>
<path d="M1285 1361 c-42 -25 -80 -73 -110 -135 -26 -54 -70 -104 -82 -93 -3
4 -1 30 6 59 9 41 9 53 -1 60 -21 13 -27 10 -42 -20 -20 -39 -105 -132 -121
-132 -17 0 -3 72 26 141 19 43 20 52 8 60 -51 31 -123 -163 -79 -216 26 -31
67 -18 120 37 40 41 50 48 50 32 0 -47 53 -59 90 -19 l23 24 27 -19 c41 -29
74 -25 138 19 118 79 152 89 152 40 0 -42 -15 -66 -47 -73 -113 -29 -283 -213
-283 -307 0 -31 31 -59 66 -59 11 0 45 18 75 39 83 60 159 171 198 288 28 82
27 126 -1 153 -34 32 -91 22 -179 -30 -39 -23 -73 -40 -75 -37 -3 3 5 28 17
56 25 60 90 121 128 121 25 1 25 1 7 15 -27 20 -75 19 -111 -4z m141 -349
c-75 -144 -188 -254 -225 -217 -31 30 46 160 142 240 53 45 121 84 125 73 2
-4 -17 -47 -42 -96z"/>
</g>
</svg>
